<svg id="レイヤー_2" data-name="レイヤー 2" xmlns="http://www.w3.org/2000/svg" width="926.39" height="79.2" viewBox="0 0 926.39 79.2">
  <defs>
    <style>
      .cls-1 {
        fill: #eaa4a4;
      }

      .cls-2 {
        fill: #dfc692;
      }

      .cls-3 {
        fill: #c9dfb0;
      }

      .cls-4 {
        fill: #add6d2;
      }

      .cls-5 {
        fill: #a796df;
      }

      .cls-6 {
        fill: #fadedd;
      }
    </style>
  </defs>
  <g>
    <path class="cls-1" d="M1.92,40.24A26,26,0,1,1,27.84,66.16,25.91,25.91,0,0,1,1.92,40.24Zm36.4,5.92c0-4.4-2.72-7.2-7.52-8.48L28.16,37c-1.92-.56-2.72-1.28-2.72-2.56s1.12-2.16,2.8-2.16c1.44,0,2.8.72,4.56,2.64l5.44-3.6c-2.8-3.76-6.16-5.6-10.56-5.6-5.52,0-9.84,3.68-9.84,8.64,0,4.4,2.72,7.28,7.76,8.72l2.24.64c2.08.56,3,1.36,3,2.72s-1.12,2.08-2.8,2.08a7.45,7.45,0,0,1-5.44-2.8L17.12,49.6a13.53,13.53,0,0,0,10.8,5.28C33.76,54.88,38.32,51.28,38.32,46.16Z"/>
    <path class="cls-2" d="M63.68,40.24A26,26,0,1,1,89.6,66.16,25.91,25.91,0,0,1,63.68,40.24Zm29.6,14.24V33h8.24V26.16H77.44L77.6,33h8.16V54.48Z"/>
    <path class="cls-3" d="M125.44,40.24a26,26,0,1,1,25.92,25.92A25.91,25.91,0,0,1,125.44,40.24Zm40.4.32V26.32h-7.6V40.56c0,4.72-2.48,7.36-6.88,7.36s-6.88-2.64-6.88-7.36V26.32h-7.6V40.56c0,8.72,5.44,14.4,14.48,14.4S165.84,49.28,165.84,40.56Z"/>
    <path class="cls-4" d="M187.2,40.24a26,26,0,1,1,25.92,25.92A25.91,25.91,0,0,1,187.2,40.24Zm25.92,14.24c9.52,0,15.44-6.48,15.44-14.16,0-7.84-5.92-14.16-15.44-14.16H201.68V54.48ZM209.2,33H213c5.2,0,8,3.2,8,7.28s-2.8,7.28-8,7.28H209.2Z"/>
    <path class="cls-5" d="M249,40.24a26,26,0,1,1,25.92,25.92A25.91,25.91,0,0,1,249,40.24Zm29.6,14.24V26.16H271V54.48Z"/>
    <path class="cls-1" d="M310.72,40.24a26,26,0,1,1,25.92,25.92A25.91,25.91,0,0,1,310.72,40.24Zm42.24.08c0-7.92-6.4-14.56-16.32-14.56s-16.32,6.64-16.32,14.48c0,8.08,6.4,14.72,16.32,14.72S353,48.32,353,40.32Zm-24.8-.08c0-4,3-7.44,8.48-7.44s8.48,3.44,8.48,7.52-3,7.52-8.48,7.52S328.16,44.48,328.16,40.24Z"/>
    <path class="cls-1" d="M434.23,40.24a26,26,0,1,1,25.93,25.92A25.92,25.92,0,0,1,434.23,40.24Zm17.85,14.24V41.76c0-1.12-.08-2.16-.08-2.16l8.32,7.12,8.16-7s-.08.88-.08,2v12.8h7.52V24.32l-13,11c-1.13.88-2.64,2.32-2.64,2.32s-1.45-1.36-2.57-2.32l-13.2-11V54.48Z"/>
    <path class="cls-2" d="M496,40.24a26,26,0,1,1,25.93,25.92A25.92,25.92,0,0,1,496,40.24Zm29.6,14.24V26.16H518V54.48Z"/>
    <path class="cls-3" d="M557.75,40.24a26,26,0,1,1,25.92,25.92A25.91,25.91,0,0,1,557.75,40.24Zm39.76,14.24.08-7H582.31l16.16-21.36H569.59V33h15.2L568.47,54.48Z"/>
    <path class="cls-4" d="M619.51,40.24a26,26,0,1,1,25.92,25.92A25.91,25.91,0,0,1,619.51,40.24Zm40.41.32V26.32h-7.61V40.56c0,4.72-2.48,7.36-6.88,7.36s-6.88-2.64-6.88-7.36V26.32H631V40.56c0,8.72,5.44,14.4,14.48,14.4S659.92,49.28,659.92,40.56Z"/>
    <path class="cls-5" d="M681.27,40.24a26,26,0,1,1,25.92,25.92A25.91,25.91,0,0,1,681.27,40.24Zm29.6,14.24V33h8.24V26.16H695l.16,6.88h8.16V54.48Z"/>
    <path class="cls-1" d="M743,40.24A26,26,0,1,1,769,66.16,25.91,25.91,0,0,1,743,40.24Zm18.8,9.6h14.4l3,5.2,7.12-2.88L769,24.8,751.67,52.08,759,55ZM769,37.68l3.84,6.24h-7.6Z"/>
    <path class="cls-2" d="M804.79,40.24a26,26,0,1,1,25.92,25.92A25.91,25.91,0,0,1,804.79,40.24Zm17.84,14.24V41.76c0-1.12-.08-2.16-.08-2.16l8.32,7.12,8.16-7s-.08.88-.08,2v12.8h7.52V24.32l-13,11c-1.12.88-2.64,2.32-2.64,2.32s-1.44-1.36-2.56-2.32l-13.2-11V54.48Z"/>
    <path class="cls-3" d="M866.55,40.24a26,26,0,1,1,25.92,25.92A25.91,25.91,0,0,1,866.55,40.24Zm18.8,9.6h14.4l3,5.2,7.12-2.88L892.55,24.8,875.19,52.08l7.28,3Zm7.12-12.16,3.84,6.24h-7.6Z"/>
  </g>
  <g>
    <circle class="cls-6" cx="398.2" cy="39.6" r="14"/>
    <circle class="cls-3" cx="380.2" cy="21.6" r="14"/>
    <circle class="cls-4" cx="416.2" cy="21.6" r="14"/>
    <circle class="cls-5" cx="416.2" cy="57.6" r="14"/>
    <circle class="cls-2" cx="380.2" cy="57.6" r="14"/>
  </g>
</svg>
